<svg xmlns="http://www.w3.org/2000/svg" xmlns:xlink="http://www.w3.org/1999/xlink" width="500" zoomAndPan="magnify" viewBox="0 0 375 374.999991" height="500" preserveAspectRatio="xMidYMid meet" version="1.0"><defs><g/></defs><g fill="#000000" fill-opacity="1"><g transform="translate(29.198441, 202.644918)"><g><path d="M 28.9375 -23.15625 C 29.769531 -24.800781 30.910156 -26.070312 32.359375 -26.96875 C 33.816406 -27.875 35.644531 -28.328125 37.84375 -28.328125 C 40.695312 -28.328125 43.050781 -27.460938 44.90625 -25.734375 C 46.757812 -24.015625 47.6875 -21.140625 47.6875 -17.109375 L 47.6875 0 L 39.484375 0 L 39.484375 -16.71875 C 39.484375 -18.769531 39.097656 -20.265625 38.328125 -21.203125 C 37.566406 -22.140625 36.394531 -22.609375 34.8125 -22.609375 C 33.050781 -22.609375 31.773438 -22.007812 30.984375 -20.8125 C 30.203125 -19.625 29.8125 -17.75 29.8125 -15.1875 L 29.8125 0 L 21.609375 0 L 21.609375 -16.71875 C 21.609375 -18.8125 21.234375 -20.316406 20.484375 -21.234375 C 19.734375 -22.148438 18.585938 -22.609375 17.046875 -22.609375 C 15.398438 -22.609375 14.132812 -22.148438 13.25 -21.234375 C 12.375 -20.316406 11.9375 -18.757812 11.9375 -16.5625 L 11.9375 0 L 3.734375 0 L 3.734375 -22.9375 C 3.734375 -23.414062 3.710938 -24.078125 3.671875 -24.921875 C 3.640625 -25.765625 3.570312 -26.71875 3.46875 -27.78125 L 11.328125 -27.78125 L 11.609375 -24.203125 C 12.628906 -25.671875 13.84375 -26.734375 15.25 -27.390625 C 16.664062 -28.046875 18.3125 -28.375 20.1875 -28.375 C 22.164062 -28.375 23.890625 -27.988281 25.359375 -27.21875 C 26.828125 -26.445312 28.019531 -25.09375 28.9375 -23.15625 Z M 28.9375 -23.15625 "/></g></g></g><g fill="#000000" fill-opacity="1"><g transform="translate(79.464676, 202.644918)"><g><path d="M 9.5625 -27.78125 L 15.671875 -8.53125 L 21.890625 -27.78125 L 29.96875 -27.78125 L 19.46875 -0.546875 L 16.109375 10.5625 L 7.921875 10.5625 L 11.4375 0.109375 L 0.765625 -27.78125 Z M 9.5625 -27.78125 "/></g></g></g><g fill="#000000" fill-opacity="1"><g transform="translate(108.392466, 202.644918)"><g><path d="M 11.765625 -39.765625 L 11.765625 -16.328125 L 20.1875 -27.9375 L 29.375 -27.9375 L 19.859375 -15.84375 L 29.96875 0 L 20.34375 0 L 11.765625 -15.125 L 11.765625 0 L 3.6875 0 L 3.6875 -39.765625 Z M 11.765625 -39.765625 "/></g></g></g><g fill="#ff3131" fill-opacity="1"><g transform="translate(137.327343, 202.644918)"><g><path d="M 11.546875 -27.78125 L 11.546875 -10.71875 C 11.546875 -8.59375 11.921875 -7.125 12.671875 -6.3125 C 13.429688 -5.507812 14.503906 -5.109375 15.890625 -5.109375 C 17.648438 -5.109375 18.960938 -5.59375 19.828125 -6.5625 C 20.691406 -7.539062 21.125 -9.789062 21.125 -13.3125 L 21.125 -27.78125 L 29.484375 -27.78125 L 29.484375 -7.96875 C 29.628906 -3.164062 29.753906 -0.507812 29.859375 0 L 21.9375 0 L 21.671875 -3.6875 C 20.679688 -2.144531 19.503906 -1.023438 18.140625 -0.328125 C 16.785156 0.367188 15.226562 0.71875 13.46875 0.71875 C 10.832031 0.71875 8.476562 -0.0859375 6.40625 -1.703125 C 4.332031 -3.316406 3.296875 -6.175781 3.296875 -10.28125 L 3.296875 -27.78125 Z M 14.796875 -39.4375 L 14.796875 -32.9375 L 9.1875 -32.9375 L 9.1875 -39.4375 Z M 24.25 -39.4375 L 24.25 -32.9375 L 18.640625 -32.9375 L 18.640625 -39.4375 Z M 24.25 -39.4375 "/></g></g></g><g fill="#000000" fill-opacity="1"><g transform="translate(169.284369, 202.644918)"><g><path d="M 13.46875 -27.609375 L 20.078125 -27.609375 L 20.078125 -22.21875 L 13.46875 -22.21875 L 13.46875 -9.625 C 13.46875 -8.007812 13.707031 -6.925781 14.1875 -6.375 C 14.664062 -5.832031 15.675781 -5.5625 17.21875 -5.5625 C 17.769531 -5.519531 18.664062 -5.570312 19.90625 -5.71875 L 19.90625 -0.390625 C 18.59375 -0.015625 17.382812 0.222656 16.28125 0.328125 C 15.175781 0.441406 14.273438 0.5 13.578125 0.5 C 10.867188 0.5 8.828125 -0.0664062 7.453125 -1.203125 C 6.078125 -2.347656 5.390625 -4.203125 5.390625 -6.765625 L 5.390625 -22.21875 L 0.0625 -22.21875 L 0.0625 -27.609375 L 5.390625 -27.609375 L 5.390625 -33.0625 L 13.46875 -36.03125 Z M 13.46875 -27.609375 "/></g></g></g><g fill="#000000" fill-opacity="1"><g transform="translate(189.027818, 202.644918)"><g><path d="M 26.234375 -17.9375 L 18.265625 -17.9375 C 18.191406 -19.21875 17.867188 -20.390625 17.296875 -21.453125 C 16.722656 -22.515625 15.851562 -23.046875 14.6875 -23.046875 C 13.257812 -23.046875 12.1875 -22.265625 11.46875 -20.703125 C 10.75 -19.148438 10.390625 -16.976562 10.390625 -14.1875 C 10.390625 -11.21875 10.753906 -8.898438 11.484375 -7.234375 C 12.222656 -5.566406 13.253906 -4.734375 14.578125 -4.734375 C 15.671875 -4.734375 16.554688 -5.21875 17.234375 -6.1875 C 17.921875 -7.15625 18.300781 -8.445312 18.375 -10.0625 L 26.40625 -10.0625 C 26.332031 -6.613281 25.25 -3.953125 23.15625 -2.078125 C 21.0625 -0.210938 18.273438 0.71875 14.796875 0.71875 C 10.429688 0.71875 7.191406 -0.65625 5.078125 -3.40625 C 2.972656 -6.15625 1.921875 -9.660156 1.921875 -13.921875 C 1.921875 -18.796875 3.191406 -22.414062 5.734375 -24.78125 C 8.285156 -27.144531 11.34375 -28.328125 14.90625 -28.328125 C 18.164062 -28.328125 20.867188 -27.375 23.015625 -25.46875 C 25.160156 -23.5625 26.234375 -21.050781 26.234375 -17.9375 Z M 26.234375 -17.9375 "/></g></g></g><g fill="#000000" fill-opacity="1"><g transform="translate(214.875831, 202.644918)"><g><path d="M 11.875 -39.703125 L 11.875 -23.984375 C 12.863281 -25.410156 14.007812 -26.460938 15.3125 -27.140625 C 16.613281 -27.816406 18.144531 -28.15625 19.90625 -28.15625 C 22.695312 -28.15625 25.046875 -27.289062 26.953125 -25.5625 C 28.859375 -23.84375 29.8125 -21.003906 29.8125 -17.046875 L 29.8125 0 L 21.71875 0 L 21.71875 -16.78125 C 21.71875 -18.832031 21.332031 -20.320312 20.5625 -21.25 C 19.800781 -22.1875 18.664062 -22.65625 17.15625 -22.65625 C 15.539062 -22.65625 14.265625 -22.148438 13.328125 -21.140625 C 12.398438 -20.140625 11.9375 -18.832031 11.9375 -17.21875 L 11.9375 0 L 3.796875 0 L 3.796875 -39.703125 Z M 11.875 -39.703125 "/></g></g></g><g fill="#ff3131" fill-opacity="1"><g transform="translate(246.839051, 202.644918)"><g><path d="M 11.0625 -19.03125 L 11.0625 -11.71875 L 4.0625 -11.71875 L 4.0625 -19.03125 Z M 11.0625 -19.03125 "/></g></g></g><g fill="#000000" fill-opacity="1"><g transform="translate(260.479675, 202.644918)"><g><path d="M 16.5 0.984375 C 12.101562 0.984375 8.640625 -0.359375 6.109375 -3.046875 C 3.578125 -5.742188 2.3125 -9.273438 2.3125 -13.640625 C 2.3125 -18.179688 3.601562 -21.78125 6.1875 -24.4375 C 8.769531 -27.101562 12.265625 -28.4375 16.671875 -28.4375 C 21.140625 -28.4375 24.65625 -27.113281 27.21875 -24.46875 C 29.789062 -21.832031 31.078125 -18.296875 31.078125 -13.859375 C 31.078125 -9.347656 29.765625 -5.742188 27.140625 -3.046875 C 24.515625 -0.359375 20.96875 0.984375 16.5 0.984375 Z M 22.765625 -14.140625 C 22.765625 -20.035156 20.734375 -22.984375 16.671875 -22.984375 C 14.722656 -22.984375 13.234375 -22.25 12.203125 -20.78125 C 11.179688 -19.320312 10.671875 -16.921875 10.671875 -13.578125 C 10.671875 -10.460938 11.171875 -8.195312 12.171875 -6.78125 C 13.179688 -5.375 14.71875 -4.671875 16.78125 -4.671875 C 18.863281 -4.671875 20.378906 -5.441406 21.328125 -6.984375 C 22.285156 -8.523438 22.765625 -10.910156 22.765625 -14.140625 Z M 22.765625 -14.140625 "/></g></g></g><g fill="#000000" fill-opacity="1"><g transform="translate(292.432241, 202.644918)"><g><path d="M 20.453125 -20.625 C 19.835938 -20.695312 19.144531 -20.734375 18.375 -20.734375 C 16.28125 -20.734375 14.644531 -20.238281 13.46875 -19.25 C 12.300781 -18.257812 11.71875 -16.5 11.71875 -13.96875 L 11.71875 0 L 3.578125 0 L 3.578125 -22.109375 C 3.429688 -25.367188 3.300781 -27.296875 3.1875 -27.890625 L 10.828125 -27.890625 C 10.941406 -27.046875 11 -25.285156 11 -22.609375 C 11.957031 -24.660156 13.125 -26.0625 14.5 -26.8125 C 15.875 -27.5625 17.566406 -27.9375 19.578125 -27.9375 L 20.453125 -27.9375 Z M 20.453125 -20.625 "/></g></g></g><g fill="#000000" fill-opacity="1"><g transform="translate(312.17569, 202.644918)"><g><path d="M 22 -23.984375 L 22.28125 -27.671875 L 29.921875 -27.671875 C 29.804688 -26.828125 29.675781 -24.679688 29.53125 -21.234375 L 29.53125 -0.109375 C 29.53125 3.585938 28.363281 6.351562 26.03125 8.1875 C 23.707031 10.019531 20.289062 10.9375 15.78125 10.9375 C 11.71875 10.9375 8.691406 10.210938 6.703125 8.765625 C 4.722656 7.316406 3.644531 5.070312 3.46875 2.03125 L 11.28125 2.03125 C 11.382812 3.238281 11.847656 4.179688 12.671875 4.859375 C 13.503906 5.546875 14.648438 5.890625 16.109375 5.890625 C 17.398438 5.890625 18.445312 5.625 19.25 5.09375 C 20.050781 4.5625 20.609375 3.910156 20.921875 3.140625 C 21.234375 2.367188 21.445312 0.84375 21.5625 -1.4375 L 21.5625 -4.34375 C 20.644531 -3.132812 19.582031 -2.195312 18.375 -1.53125 C 17.164062 -0.875 15.71875 -0.546875 14.03125 -0.546875 C 10.539062 -0.546875 7.722656 -1.859375 5.578125 -4.484375 C 3.429688 -7.109375 2.359375 -10.34375 2.359375 -14.1875 C 2.359375 -18.1875 3.429688 -21.476562 5.578125 -24.0625 C 7.722656 -26.644531 10.613281 -27.9375 14.25 -27.9375 C 15.96875 -27.9375 17.457031 -27.625 18.71875 -27 C 19.988281 -26.375 21.082031 -25.367188 22 -23.984375 Z M 15.953125 -6.109375 C 17.816406 -6.109375 19.234375 -6.800781 20.203125 -8.1875 C 21.179688 -9.582031 21.671875 -11.546875 21.671875 -14.078125 C 21.671875 -16.898438 21.191406 -19.007812 20.234375 -20.40625 C 19.285156 -21.800781 17.894531 -22.5 16.0625 -22.5 C 14.375 -22.5 13.023438 -21.800781 12.015625 -20.40625 C 11.003906 -19.007812 10.5 -16.957031 10.5 -14.25 C 10.5 -11.53125 10.96875 -9.492188 11.90625 -8.140625 C 12.84375 -6.785156 14.191406 -6.109375 15.953125 -6.109375 Z M 15.953125 -6.109375 "/></g></g></g></svg>